<?xml version="1.0" encoding="utf-8"?>
<!-- Generator: Adobe Illustrator 27.3.1, SVG Export Plug-In . SVG Version: 6.00 Build 0)  -->
<svg version="1.1" id="Layer_1" xmlns="http://www.w3.org/2000/svg" xmlns:xlink="http://www.w3.org/1999/xlink" x="0px" y="0px"
	 viewBox="0 0 6815 3500" style="enable-background:new 0 0 6815 3500;" xml:space="preserve">
<style type="text/css">
	.st0{fill:none;stroke:#000000;stroke-width:60;stroke-miterlimit:10;}
	.st1{fill:none;stroke:#3E56A6;stroke-width:40;stroke-miterlimit:10;}
</style>
<line class="st0" x1="32.99" y1="150.7" x2="34.99" y2="3432.61"/>
<line class="st0" x1="6811.82" y1="3411.8" x2="3.19" y2="3411.78"/>
<line class="st0" x1="6779.95" y1="142.11" x2="6784.74" y2="3434.71"/>
<line class="st0" x1="6800.02" y1="170.73" x2="8.44" y2="170.72"/>
<line class="st1" x1="1054.92" y1="1614.14" x2="1050.91" y2="200.99"/>
<line class="st1" x1="1600.83" y1="1614.87" x2="1595.49" y2="727.17"/>
<line class="st1" x1="64" y1="2104.91" x2="635.83" y2="2104.91"/>
<line class="st1" x1="978.86" y1="2098.92" x2="1595.31" y2="2098.92"/>
<line class="st1" x1="1579.87" y1="1594.12" x2="1778.38" y2="1594.12"/>
<line class="st1" x1="1975.5" y1="1595.13" x2="3320.99" y2="1593.1"/>
<line class="st1" x1="1575.29" y1="3379.51" x2="1577.09" y2="2077.67"/>
<line class="st1" x1="1576.33" y1="2098.92" x2="2192.78" y2="2098.92"/>
<line class="st1" x1="2389.6" y1="2101.96" x2="2759.06" y2="2101.96"/>
<line class="st1" x1="2757.28" y1="3380.37" x2="2759.06" y2="2085.7"/>
<line class="st1" x1="2757.57" y1="1614.14" x2="2758.56" y2="201.92"/>
<line class="st1" x1="1579.47" y1="748.4" x2="2761.96" y2="748.4"/>
<line class="st1" x1="3810.54" y1="1594.12" x2="3804.76" y2="201.92"/>
<line class="st1" x1="4279.74" y1="1602.62" x2="4275.06" y2="200.06"/>
<line class="st1" x1="5890.21" y1="1634.25" x2="5892.19" y2="199.12"/>
<line class="st1" x1="3585.97" y1="1602.62" x2="3922.34" y2="1602.62"/>
<line class="st1" x1="4126.43" y1="1598.6" x2="5008.64" y2="1606.63"/>
<line class="st1" x1="5208.28" y1="1611.5" x2="5910.95" y2="1616.79"/>
<line class="st1" x1="6167.77" y1="1618.72" x2="6751.99" y2="1623.12"/>
<line class="st1" x1="3396.6" y1="3380.44" x2="3397.51" y2="2098.92"/>
<line class="st1" x1="4048.5" y1="3381.39" x2="4050.26" y2="2098.94"/>
<line class="st1" x1="4763.99" y1="3380.44" x2="4761.15" y2="2104.91"/>
<line class="st1" x1="5498.7" y1="3379.51" x2="5500.46" y2="2104.91"/>
<line class="st1" x1="6172.47" y1="3380.47" x2="6173.25" y2="2107.98"/>
</svg>
