<svg width="141" height="32" viewBox="0 0 141 32" fill="none" xmlns="http://www.w3.org/2000/svg">
<g clip-path="url(#clip0_348_503)">
<path d="M1.125 9.97668C1.12507 9.46874 1.29402 8.97499 1.6057 8.57192C1.91738 8.16884 2.35438 7.87894 2.84902 7.7471C3.34366 7.61526 3.86834 7.64886 4.34178 7.84267C4.81522 8.03649 5.211 8.37972 5.46783 8.81919H11.9856V11.1352H5.46783C5.21096 11.5747 4.81509 11.918 4.34154 12.1118C3.868 12.3056 3.34323 12.3391 2.84854 12.2071C2.35384 12.0752 1.91684 11.7851 1.60524 11.3818C1.29365 10.9786 1.12485 10.4847 1.125 9.97668Z" fill="#FFCE1F"/>
<path d="M15.8199 29.6925C15.8197 29.2877 15.9269 28.89 16.1307 28.5394C16.3346 28.1887 16.6278 27.8974 16.9811 27.6947V26.2031H10.6639V5.07195C10.114 4.81007 9.67022 4.37075 9.40515 3.82598C9.14007 3.28121 9.06945 2.6633 9.20486 2.07352C9.34027 1.48374 9.67369 0.957057 10.1505 0.579797C10.6272 0.202536 11.2191 -0.00292969 11.829 -0.00292969C12.439 -0.00292969 13.0308 0.202536 13.5076 0.579797C13.9844 0.957057 14.3178 1.48374 14.4532 2.07352C14.5886 2.6633 14.518 3.28121 14.2529 3.82598C13.9878 4.37075 13.544 4.81007 12.9942 5.07195V23.8841H19.3114V27.6947C19.6649 27.8978 19.9583 28.1896 20.1622 28.5408C20.366 28.8919 20.473 29.2901 20.4726 29.6953C20.4721 30.1004 20.3641 30.4984 20.1595 30.8491C19.9549 31.1998 19.6608 31.4909 19.3068 31.6932C18.9528 31.8955 18.5514 32.0019 18.1428 32.0016C17.7342 32.0014 17.3329 31.8945 16.9792 31.6918C16.6254 31.4891 16.3317 31.1976 16.1275 30.8466C15.9233 30.4957 15.8159 30.0976 15.8159 29.6925H15.8199Z" fill="#C62B6D"/>
<path d="M132.882 14.4033L131.23 12.7645L137.699 6.34863H141L133.537 13.755L132.998 13.1732V14.288L132.882 14.4033Z" fill="#C62B6D"/>
<path d="M140.709 17.6065H137.408L130.939 11.1895L132.591 9.55176L132.992 9.94952V11.0533L133.547 10.4945L140.708 17.6065H140.709Z" fill="#C62B6D"/>
<path d="M119.639 17.6023H117.084L113.28 9.13199L109.476 17.6023H106.92L111.973 6.34766H114.586L119.639 17.6023Z" fill="#C62B6D"/>
<path d="M117.051 13.9136V11.5986H109.921V13.9136H117.051Z" fill="#C62B6D"/>
<path d="M120.949 16.0027V15.9848H120.738V4.74805H123.073V13.6878H129.39V16.0027H120.949Z" fill="#C62B6D"/>
<path d="M132.998 6.34766H130.664V17.6023H132.998V6.34766Z" fill="#C62B6D"/>
<path d="M89.6504 12.252H91.9847V17.6029H89.6504V12.252Z" fill="#C62B6D"/>
<path d="M105.43 6.46484H103.095V17.6022H105.43V6.46484Z" fill="#C62B6D"/>
<path d="M90.1731 16.1177L91.9575 17.6025L99.0649 9.20262L97.2805 7.71777L90.1731 16.1177Z" fill="#C62B6D"/>
<path d="M97.799 7.71731L96.0146 9.20215L103.122 17.6021L104.906 16.1172L97.799 7.71731Z" fill="#C62B6D"/>
<path d="M97.581 7.35742L99.1533 9.31939H96.0308L97.581 7.35742Z" fill="#C62B6D"/>
<path d="M38.4979 17.583H36.1084V15.2641H38.4979V4.46582H40.8333V4.47179L47.2798 12.0909V4.46582H49.6142V15.7205H47.2828V15.6807L40.8333 8.05861V17.583H38.4979Z" fill="#3E59B7"/>
<path d="M2.96029e-06 18.4552C6.99338e-05 17.9473 0.169027 17.4536 0.480704 17.0505C0.79238 16.6474 1.22938 16.3575 1.72402 16.2257C2.21866 16.0938 2.74334 16.1274 3.21678 16.3212C3.69022 16.5151 4.086 16.8583 4.34283 17.2978H16.8188V0.432618H21.5427V2.7476H19.1522V8.5062H21.5417V8.51217C22.3129 8.51217 23.0525 8.20834 23.5979 7.66753C24.1432 7.12672 24.4496 6.39322 24.4496 5.62839C24.4496 4.86357 24.1432 4.13007 23.5979 3.58925C23.0525 3.04844 22.3129 2.74461 21.5417 2.74461L21.5427 0.432618C22.7978 0.431844 24.0106 0.878053 24.9619 1.69003C25.9133 2.502 26.539 3.62575 26.7252 4.85673C26.9114 6.08771 26.6457 7.34407 25.9765 8.39714C25.3073 9.4502 24.279 10.23 23.0789 10.5945L27.7496 16.1154L25.9607 17.607L20.2221 10.8252H19.1522V19.6167H4.34283C4.08583 20.0565 3.68969 20.3999 3.21585 20.5936C2.74201 20.7874 2.21694 20.8206 1.72208 20.6883C1.22723 20.5559 0.79023 20.2654 0.47887 19.8616C0.16751 19.4579 -0.000814063 18.9635 2.96029e-06 18.4552Z" fill="#3E59B7"/>
<path d="M38.6273 17.5799H36.0724L32.268 9.10953L28.4647 17.5799H25.9087L30.9615 6.3252H33.5746L38.6273 17.5799Z" fill="#3E59B7"/>
<path d="M35.6021 13.8912V11.5762H28.9088V13.8912H35.6021Z" fill="#3E59B7"/>
<path d="M54.2224 17.6017H51.8881V8.6431H49.0664V6.32812H54.2224V6.34006H57.5615V6.32812C57.6899 6.32812 57.8172 6.3321 57.9436 6.34006H57.9977C59.4235 6.4479 60.7555 7.08605 61.7269 8.12666C62.6983 9.16726 63.2374 10.5334 63.236 11.9515C63.2365 12.6906 63.0901 13.4226 62.8051 14.1056C62.5201 14.7886 62.1022 15.4091 61.5752 15.9318C61.0481 16.4544 60.4224 16.8689 59.7337 17.1515C59.045 17.4342 58.3069 17.5794 57.5615 17.5788V17.5987L54.2224 17.6017ZM54.2224 15.2857H57.5615V15.2519C58.0031 15.2595 58.4418 15.1798 58.852 15.0175C59.2622 14.8552 59.6357 14.6135 59.9507 14.3065C60.2657 13.9995 60.5158 13.6334 60.6866 13.2295C60.8574 12.8255 60.9453 12.392 60.9453 11.954C60.9453 11.516 60.8574 11.0824 60.6866 10.6785C60.5158 10.2746 60.2657 9.90846 59.9507 9.60147C59.6357 9.29447 59.2622 9.05276 58.852 8.89043C58.4418 8.72811 58.0031 8.64843 57.5615 8.65603H54.2224V15.2857Z" fill="#3E59B7"/>
<path d="M74.8007 15.7204H64.0645V5.07324H74.8007V15.7204ZM66.3858 7.37529V13.4183H72.4794V7.37529H66.3858Z" fill="#3E59B7"/>
<path d="M78.5341 6.34863H76.1997V17.6033H78.5341V6.34863Z" fill="#3E59B7"/>
<path d="M91.9828 6.34863H89.6484V11.976H91.9828V6.34863Z" fill="#3E59B7"/>
<path d="M84.0733 16.5065L76.7354 7.83328L78.5202 6.34863L85.5955 14.7106L84.0733 16.5055V16.5065Z" fill="#3E59B7"/>
<path d="M84.072 16.5015L82.5498 14.7016L89.6211 6.34863L91.4059 7.83328L84.072 16.5015Z" fill="#3E59B7"/>
</g>
<defs>
<clipPath id="clip0_348_503">
<rect width="141" height="32" fill="white"/>
</clipPath>
</defs>
</svg>
